<svg width="21" height="17" viewBox="0 0 21 17" fill="none" xmlns="http://www.w3.org/2000/svg">
<path d="M18.9844 5.33641C18.7188 5.52386 17.918 6.08061 16.5821 7.00635C15.2461 7.93209 14.2227 8.64489 13.5118 9.14478C13.4337 9.19958 13.2677 9.31869 13.0138 9.50229C12.7599 9.68601 12.549 9.83447 12.3811 9.94772C12.2131 10.0609 12.01 10.1879 11.7716 10.3285C11.5333 10.469 11.3086 10.5746 11.0977 10.6445C10.8867 10.7151 10.6914 10.75 10.5118 10.75H10.5H10.4882C10.3085 10.75 10.1131 10.715 9.90217 10.6445C9.69132 10.5746 9.46647 10.4688 9.22837 10.3285C8.99014 10.1878 8.78704 10.0609 8.61904 9.94772C8.45104 9.83447 8.24023 9.68601 7.98624 9.50229C7.73242 9.31853 7.56627 9.19958 7.48816 9.14478C6.76953 8.64489 4.94123 7.37531 2.00385 5.33616C1.43356 4.9379 0.957102 4.45733 0.574352 3.8948C0.191315 3.33252 0 2.74265 0 2.12553C0 1.60984 0.18565 1.16839 0.556784 0.801238C0.927877 0.434003 1.36739 0.250488 1.87505 0.250488H19.1251C19.7266 0.250488 20.1895 0.453582 20.5137 0.859769C20.8379 1.26604 21 1.77385 21 2.38318C21 2.87535 20.7851 3.4087 20.3555 3.98289C19.9259 4.55712 19.4687 5.00833 18.9844 5.33641Z" fill="black"/>
<path d="M1.17204 6.5898C3.73427 8.32402 5.67983 9.6718 7.00777 10.6328C7.45308 10.9608 7.81432 11.2169 8.09174 11.4003C8.36917 11.5839 8.73813 11.7714 9.19915 11.9628C9.66001 12.1544 10.0895 12.2499 10.488 12.2499H10.5H10.5118C10.9102 12.2499 11.3399 12.1544 11.8008 11.9628C12.2616 11.7714 12.6309 11.5839 12.9082 11.4003C13.1855 11.2169 13.5468 10.9608 13.9921 10.6328C15.0468 9.85946 16.9882 8.5116 19.8163 6.5898C20.2617 6.29313 20.6562 5.95306 21 5.57031V14.8747C21 15.3907 20.8165 15.8319 20.4493 16.1991C20.0821 16.5664 19.6406 16.75 19.125 16.75H1.8749C1.35937 16.75 0.917923 16.5664 0.55073 16.1991C0.183413 15.8318 -1.90735e-05 15.3907 -1.90735e-05 14.8747V5.57031C0.335979 5.94514 0.726488 6.2852 1.17204 6.5898Z" fill="black"/>
</svg>
