<svg width="22" height="21" viewBox="0 0 22 21" fill="none" xmlns="http://www.w3.org/2000/svg">
<g clip-path="url(#clip0)">
<path d="M19.3262 7.33616C19.0606 7.52362 18.2598 8.08036 16.9239 9.0061C15.5879 9.93185 14.5645 10.6446 13.8536 11.1445C13.7754 11.1993 13.6095 11.3184 13.3556 11.502C13.1017 11.6858 12.8908 11.8342 12.7229 11.9475C12.5549 12.0607 12.3518 12.1877 12.1134 12.3283C11.8751 12.4687 11.6504 12.5744 11.4395 12.6443C11.2285 12.7148 11.0332 12.7498 10.8536 12.7498H10.8418H10.83C10.6503 12.7498 10.4549 12.7148 10.244 12.6443C10.0331 12.5744 9.80827 12.4686 9.57016 12.3283C9.33193 12.1875 9.12884 12.0606 8.96084 11.9475C8.79284 11.8342 8.58203 11.6858 8.32804 11.502C8.07422 11.3183 7.90806 11.1993 7.82995 11.1445C7.11133 10.6446 5.28303 9.37506 2.34564 7.33592C1.77536 6.93765 1.2989 6.45709 0.916149 5.89456C0.533111 5.33228 0.341797 4.74241 0.341797 4.12529C0.341797 3.60959 0.527447 3.16815 0.898581 2.80099C1.26967 2.43376 1.70919 2.25024 2.21684 2.25024H19.4669C20.0684 2.25024 20.5313 2.45334 20.8555 2.85953C21.1797 3.26579 21.3418 3.77361 21.3418 4.38293C21.3418 4.87511 21.1269 5.40846 20.6973 5.98264C20.2677 6.55687 19.8105 7.00809 19.3262 7.33616Z" fill="white"/>
<path d="M1.51383 8.5898C4.07606 10.324 6.02162 11.6718 7.34957 12.6328C7.79487 12.9608 8.15611 13.2169 8.43354 13.4003C8.71097 13.5839 9.07993 13.7714 9.54095 13.9628C10.0018 14.1544 10.4313 14.2499 10.8298 14.2499H10.8418H10.8535C11.252 14.2499 11.6817 14.1544 12.1426 13.9628C12.6034 13.7714 12.9726 13.5839 13.25 13.4003C13.5273 13.2169 13.8886 12.9608 14.3339 12.6328C15.3886 11.8595 17.33 10.5116 20.1581 8.5898C20.6035 8.29313 20.998 7.95306 21.3418 7.57031V16.8747C21.3418 17.3907 21.1583 17.8319 20.791 18.1991C20.4239 18.5664 19.9824 18.75 19.4668 18.75H2.2167C1.70117 18.75 1.25972 18.5664 0.892526 18.1991C0.52521 17.8318 0.341777 17.3907 0.341777 16.8747V7.57031C0.677776 7.94514 1.06828 8.2852 1.51383 8.5898Z" fill="white"/>
</g>
<defs>
<clipPath id="clip0">
<rect width="21" height="21" fill="white" transform="matrix(-1 0 0 1 21.3418 0)"/>
</clipPath>
</defs>
</svg>
