<svg width="21" height="21" viewBox="0 0 21 21" fill="none" xmlns="http://www.w3.org/2000/svg">
<path d="M10.4994 10.2704C12.8342 10.2704 14.7272 7.9713 14.7272 5.13522C14.7272 2.29908 14.1057 0 10.4994 0C6.89308 0 6.27148 2.29908 6.27148 5.13522C6.27148 7.9713 8.16442 10.2704 10.4994 10.2704Z" fill="black"/>
<path d="M18.4863 18.2459C18.4887 18.1986 18.4871 17.9175 18.4863 18.2459V18.2459Z" fill="black"/>
<path d="M18.4753 17.9035C18.397 12.963 17.7518 11.5552 12.8142 10.6641C12.8142 10.6641 12.1191 11.5497 10.4991 11.5497C8.87913 11.5497 8.18397 10.6641 8.18397 10.6641C3.30027 11.5455 2.61579 12.9324 2.52579 17.743C2.51841 18.1358 2.51499 18.1565 2.51367 18.1109C2.51397 18.1963 2.51433 18.3543 2.51433 18.6299C2.51433 18.6299 3.68985 20.9997 10.4991 20.9997C17.3083 20.9997 18.4839 18.6299 18.4839 18.6299C18.4839 18.4529 18.4841 18.3297 18.4842 18.246C18.4829 18.2742 18.4803 18.2195 18.4753 17.9035Z" fill="black"/>
</svg>
