<svg width="21" height="21" viewBox="0 0 21 21" fill="none" xmlns="http://www.w3.org/2000/svg">
<path d="M10.4999 10.2704C12.8347 10.2704 14.7277 7.9713 14.7277 5.13522C14.7277 2.29908 14.1062 0 10.4999 0C6.89357 0 6.27197 2.29908 6.27197 5.13522C6.27197 7.9713 8.16491 10.2704 10.4999 10.2704Z" fill="white"/>
<path d="M2.51524 18.1111C2.51452 17.9381 2.51379 18.0624 2.51524 18.1111V18.1111Z" fill="white"/>
<path d="M18.4861 18.2459C18.4884 18.1986 18.4869 17.9175 18.4861 18.2459V18.2459Z" fill="white"/>
<path d="M18.476 17.9037C18.3977 12.9632 17.7525 11.5554 12.8149 10.6643C12.8149 10.6643 12.1199 11.55 10.4999 11.55C8.87986 11.55 8.1847 10.6643 8.1847 10.6643C3.301 11.5457 2.61652 12.9326 2.52652 17.7432C2.51914 18.1361 2.51572 18.1567 2.5144 18.1111C2.5147 18.1965 2.51506 18.3546 2.51506 18.6302C2.51506 18.6302 3.69058 20.9999 10.4999 20.9999C17.309 20.9999 18.4847 18.6302 18.4847 18.6302C18.4847 18.4531 18.4848 18.33 18.485 18.2462C18.4836 18.2744 18.481 18.2198 18.476 17.9037Z" fill="white"/>
</svg>
