<svg width="19" height="19" viewBox="0 0 19 19" fill="none" xmlns="http://www.w3.org/2000/svg">
<g clip-path="url(#clip0)">
<path d="M0 13.783V19.0001H5.21715L15.6514 8.56583L10.4342 3.34863L0 13.783ZM4.55242 17.3948L3.21048 17.395V15.7896H1.60528V14.4476L2.74653 13.3063L5.69367 16.2534L4.55242 17.3948ZM10.8358 5.48072C11.0195 5.48072 11.1115 5.57275 11.1115 5.75658C11.1115 5.8403 11.0824 5.91124 11.0237 5.96988L4.22631 12.7672C4.16776 12.8256 4.09664 12.8549 4.01309 12.8549C3.82931 12.8549 3.73728 12.7627 3.73728 12.5791C3.73728 12.4953 3.76654 12.4244 3.825 12.3658L10.6224 5.56849C10.6808 5.50998 10.7519 5.48072 10.8358 5.48072Z" fill="black"/>
<path d="M18.5361 3.41104L15.589 0.476511C15.2714 0.158969 14.8909 0 14.4477 0C13.996 0 13.6201 0.158969 13.3191 0.476511L11.2373 2.54583L16.4545 7.76294L18.5364 5.68119C18.8457 5.37182 19.0003 4.99559 19.0003 4.55242C19.0001 4.11777 18.8456 3.73724 18.5361 3.41104Z" fill="black"/>
</g>
<defs>
<clipPath id="clip0">
<rect width="19" height="19" fill="white"/>
</clipPath>
</defs>
</svg>
