<svg width="20" height="19" viewBox="0 0 20 19" fill="none" xmlns="http://www.w3.org/2000/svg">
<g clip-path="url(#clip0)">
<path d="M0.0390625 13.783V19.0001H5.25622L15.6905 8.56583L10.4732 3.34863L0.0390625 13.783ZM4.59148 17.3948L3.24954 17.395V15.7896H1.64434V14.4476L2.78559 13.3063L5.73273 16.2534L4.59148 17.3948ZM10.8749 5.48072C11.0586 5.48072 11.1506 5.57275 11.1506 5.75658C11.1506 5.8403 11.1214 5.91124 11.0628 5.96988L4.26537 12.7672C4.20682 12.8256 4.1357 12.8549 4.05216 12.8549C3.86837 12.8549 3.77634 12.7627 3.77634 12.5791C3.77634 12.4953 3.8056 12.4244 3.86407 12.3658L10.6615 5.56849C10.7199 5.50998 10.791 5.48072 10.8749 5.48072Z" fill="white"/>
<path d="M18.5749 3.41104L15.6278 0.476511C15.3102 0.158969 14.9297 0 14.4866 0C14.0349 0 13.6589 0.158969 13.358 0.476511L11.2761 2.54583L16.4934 7.76294L18.5752 5.68119C18.8845 5.37182 19.0391 4.99559 19.0391 4.55242C19.0389 4.11777 18.8844 3.73724 18.5749 3.41104Z" fill="white"/>
</g>
<defs>
<clipPath id="clip0">
<rect width="19" height="19" fill="white" transform="translate(0.0390625)"/>
</clipPath>
</defs>
</svg>
