<svg width="21" height="21" viewBox="0 0 21 21" fill="none" xmlns="http://www.w3.org/2000/svg">
<path d="M20.99 16.5691C21.0345 16.91 20.9306 17.2064 20.6787 17.4583L17.722 20.3928C17.5886 20.541 17.4145 20.667 17.1996 20.7707C16.9847 20.8745 16.7735 20.9412 16.5661 20.9708C16.5513 20.9708 16.5067 20.9746 16.4326 20.982C16.3586 20.9894 16.2622 20.9931 16.1437 20.9931C15.862 20.9931 15.4062 20.945 14.7763 20.8486C14.1465 20.7522 13.3758 20.5151 12.4644 20.1372C11.5528 19.7593 10.5191 19.1923 9.36308 18.4365C8.2071 17.6808 6.97693 16.6432 5.6727 15.3241C4.63524 14.3015 3.77564 13.3233 3.09388 12.3897C2.41212 11.4559 1.86375 10.5926 1.44877 9.79969C1.03375 9.00677 0.722515 8.28796 0.515023 7.64326C0.307532 6.99855 0.166734 6.44277 0.0926301 5.97592C0.018526 5.50906 -0.0111156 5.14225 0.0037052 4.87547C0.018526 4.6087 0.0259364 4.46049 0.0259364 4.43085C0.055578 4.22336 0.122272 4.01216 0.226017 3.79726C0.329763 3.58236 0.45574 3.40821 0.603948 3.27482L3.5607 0.318073C3.76819 0.110582 4.00532 0.00683594 4.2721 0.00683594C4.46477 0.00683594 4.63521 0.062414 4.78342 0.17357C4.93163 0.284726 5.0576 0.421819 5.16135 0.584848L7.54009 5.09778C7.67348 5.33492 7.71053 5.59428 7.65124 5.87588C7.59196 6.15747 7.46598 6.39461 7.27331 6.58728L6.18398 7.67661C6.15434 7.70625 6.12841 7.75441 6.10617 7.82111C6.08394 7.8878 6.07283 7.94338 6.07283 7.98784C6.13211 8.29908 6.2655 8.65478 6.47299 9.05494C6.65084 9.41064 6.92502 9.84415 7.29554 10.3555C7.66606 10.8668 8.1922 11.4559 8.87396 12.1228C9.5409 12.8046 10.1337 13.3344 10.6525 13.7124C11.1711 14.0902 11.6047 14.3682 11.953 14.5461C12.3013 14.7239 12.5681 14.8314 12.7533 14.8683L13.0311 14.9239C13.0608 14.9239 13.109 14.9128 13.1757 14.8906C13.2424 14.8683 13.2905 14.8424 13.3202 14.8127L14.5873 13.5233C14.8543 13.2862 15.1654 13.1676 15.5211 13.1676C15.7731 13.1676 15.9731 13.2121 16.1213 13.301H16.1435L20.4341 15.8354C20.7454 16.0282 20.9307 16.2727 20.99 16.5691Z" fill="#010002"/>
</svg>
